<?xml version="1.0" encoding="utf-8"?>
<!-- Generator: Adobe Illustrator 19.2.0, SVG Export Plug-In . SVG Version: 6.00 Build 0)  -->
<svg version="1.1" xmlns="http://www.w3.org/2000/svg" xmlns:xlink="http://www.w3.org/1999/xlink" x="0px" y="0px" width="100px"
	 height="100px" viewBox="0 0 100 100" style="enable-background:new 0 0 100 100;" xml:space="preserve">
<style type="text/css">
	.st0{fill:none;}
	.st1{fill:none;stroke:#FFFFFF;stroke-width:5;stroke-miterlimit:10;}
</style>
<g id="Слой_1">
</g>
<g id="Слой_3">
	<path class="st0" d="M88.2,54.4c0,12.7-5.3,24-13.6,31.6c-4.9-5-14.1-8.4-24.6-8.4S30.3,81,25.4,86c-8.3-7.6-13.6-18.9-13.6-31.6
		c0-22.8,17.1-41.3,38.2-41.3S88.2,31.6,88.2,54.4z"/>
</g>
<g id="Слой_4">
	<path class="st1" d="M64.9,49.6C63.4,61.4,56.6,66.5,50,66.5c-6.1,0-13.4-5.6-14.9-16.9c-1.3-9.8,3.8-17.8,14.9-17.8
		C60.3,31.8,66.1,39.8,64.9,49.6z"/>
</g>
</svg>
