<svg xmlns="http://www.w3.org/2000/svg" width="32" height="32">
    <title />
    <desc />
    <g fill="none">
        <title>background</title>
        <rect id="canvas_background" x="-1" y="-1" width="582" height="402" />
    </g>
    <g fill="white">
        <title>Layer 1</title>
        <path id="search" d="m 19.4271 21.4271 c -1.38987 0.99036 -3.09047 1.57288 -4.92712 1.57288 c -4.69442 0 -8.5 -3.80558 -8.5 -8.5 c 0 -4.69442 3.80558 -8.5 8.5 -8.5 c 4.69442 0 8.5 3.80558 8.5 8.5 c 0 1.83665 -0.58252 3.53725 -1.57288 4.92712 l 5.5848 5.5848 c 0.5502 0.5502 0.54561 1.43055 -0.0002 1.97636 l -0.02344 0.02344 c -0.54442 0.54442 -1.43066 0.5459 -1.97636 0.0002 l -5.5848 -5.5848 l 0 0 Z m -4.92712 -0.42712 c 3.58985 0 6.5 -2.91015 6.5 -6.5 c 0 -3.58985 -2.91015 -6.5 -6.5 -6.5 c -3.58985 0 -6.5 2.91015 -6.5 6.5 c 0 3.58985 2.91015 6.5 6.5 6.5 l 0 0 Z" />
    </g>
</svg>